<?xml version="1.0" encoding="utf-8"?>
<!-- Generator: Adobe Illustrator 22.1.0, SVG Export Plug-In . SVG Version: 6.00 Build 0)  -->
<svg version="1.1" id="Layer_2" xmlns="http://www.w3.org/2000/svg" xmlns:xlink="http://www.w3.org/1999/xlink" x="0px" y="0px"
	 viewBox="0 0 512 512" style="enable-background:new 0 0 512 512;" xml:space="preserve">
<style type="text/css">
	.st0{fill:url(#SVGID_1_);}
	.st1{fill:url(#SVGID_2_);}
	.st2{fill:#333333;}
</style>
<linearGradient id="SVGID_1_" gradientUnits="userSpaceOnUse" x1="256.05" y1="184.2" x2="256.05" y2="433.3">
	<stop  offset="0" style="stop-color:#F6F1EC"/>
	<stop  offset="1" style="stop-color:#EEDCD0"/>
</linearGradient>
<path class="st0" d="M153.1,244.8c7.2,74.2,44.4,142.3,102.9,188.5c58.5-46.2,95.7-114.3,103-188.5l-103-60.6L153.1,244.8z"/>
<linearGradient id="SVGID_2_" gradientUnits="userSpaceOnUse" x1="256" y1="111.275" x2="256" y2="511.95">
	<stop  offset="0" style="stop-color:#F6F1EC"/>
	<stop  offset="1" style="stop-color:#EEDCD0"/>
</linearGradient>
<path class="st1" d="M421.3,207.2L260,112.4c-2.5-1.5-5.6-1.5-8.1,0L90.7,207.2c-2.6,1.5-4.1,4.4-3.9,7.5l2,29.3
	C101,420.2,242,500.3,251.1,510.3c2.9,2.2,6.9,2.2,9.8,0c9.6-10.5,150.1-89.4,162.3-266.3l2-29.3
	C425.4,211.6,423.9,208.7,421.3,207.2z M261,449.7c-3,2.3-7.2,2.3-10.2-0.1c-66.1-50-107.6-126-114.1-208.6c-0.2-3,1.3-5.9,3.9-7.5
	L251.9,168c2.5-1.5,5.6-1.5,8.1,0l111.3,65.5c2.6,1.5,4.1,4.4,3.9,7.5C368.8,323.7,327.2,399.7,261,449.7z"/>
<g>
	<path class="st2" d="M184,248.9h272c4.4,0,8-3.6,8-8s-3.6-8-8-8H184c-4.4,0-8,3.6-8,8S179.6,248.9,184,248.9z"/>
	<path class="st2" d="M184,183.1h272c4.4,0,8-3.6,8-8s-3.6-8-8-8H184c-4.4,0-8,3.6-8,8S179.6,183.1,184,183.1z"/>
	<path class="st2" d="M72,304h48c13.3,0,24-10.7,24-24V136c0-13.3-10.7-24-24-24H72c-13.3,0-24,10.7-24,24v144
		C48,293.3,58.7,304,72,304z M64,136c0-4.4,3.6-8,8-8h48c4.4,0,8,3.6,8,8v144c0,4.4-3.6,8-8,8H72c-4.4,0-8-3.6-8-8V136z"/>
	<path class="st2" d="M472,0H40C17.9,0,0,17.9,0,40v272c0,22.1,17.9,40,40,40h432c22.1,0,40-17.9,40-40V40C512,17.9,494.1,0,472,0z
		 M496,312c0,13.3-10.7,24-24,24H40c-13.3,0-24-10.7-24-24V80h480V312z M496,64H16V40c0-13.3,10.7-24,24-24h432
		c13.3,0,24,10.7,24,24V64z"/>
	<circle class="st2" cx="40" cy="40" r="8"/>
	<circle class="st2" cx="72" cy="40" r="8"/>
	<circle class="st2" cx="104" cy="40" r="8"/>
</g>
</svg>
