<?xml version="1.0" encoding="utf-8"?>
<!-- Generator: Adobe Illustrator 22.1.0, SVG Export Plug-In . SVG Version: 6.00 Build 0)  -->
<svg version="1.1" id="Layer_2" xmlns="http://www.w3.org/2000/svg" xmlns:xlink="http://www.w3.org/1999/xlink" x="0px" y="0px"
	 viewBox="0 0 512 512" style="enable-background:new 0 0 512 512;" xml:space="preserve">
<style type="text/css">
	.st0{fill:url(#SVGID_1_);}
	.st1{fill:#333333;}
</style>
<linearGradient id="SVGID_1_" gradientUnits="userSpaceOnUse" x1="256.002" y1="480.2434" x2="256.002" y2="41.0365">
	<stop  offset="0" style="stop-color:#EEDCD0"/>
	<stop  offset="1" style="stop-color:#F6F1EC"/>
	<stop  offset="1" style="stop-color:#000000"/>
</linearGradient>
<path class="st0" d="M418.9,60.2l-48-18.6c-1.9-0.7-3.9-0.7-5.8,0L256,83.8L146.9,41.6c-1.9-0.7-3.9-0.7-5.8,0l-48,18.6
	c-4.1,1.6-6.2,6.2-4.6,10.3c0.8,2.1,2.5,3.8,4.6,4.6l92.7,35.9l-68.7,26.6c-3.1,1.2-5.1,4.1-5.1,7.4v308.6c0,3.3,2,6.3,5.1,7.5
	l48,18.6c4.1,1.6,8.8-0.5,10.3-4.6c0.4-0.9,0.5-1.9,0.5-2.9V169.1l80-31l80,31v303.1c0,4.4,3.6,8,8,8c1,0,2-0.2,2.9-0.5l48-18.6
	c3.1-1.2,5.1-4.2,5.1-7.5V145c0-3.3-2-6.3-5.1-7.5L326.2,111l92.7-35.9c4.1-1.6,6.2-6.2,4.6-10.4C422.6,62.6,421,61,418.9,60.2z"/>
<path class="st1" d="M506.9,94.2L270.4,2.7c-9.3-3.6-19.6-3.6-28.9,0l0,0L5.1,94.2c-3,1.3-5,4.2-5.1,7.5v29.5
	c0.1,15.9,9.5,30.2,24,36.6v229.9c0.1,16.5,10.2,31.3,25.6,37.3l192,74.3c9.3,3.6,19.6,3.6,28.9,0l192-74.3
	c15.4-6,25.5-20.8,25.6-37.3V167.8c14.5-6.4,23.9-20.7,24-36.6v-29.5C511.8,98.4,509.9,95.5,506.9,94.2z M247.3,17.6
	c5.6-2.2,11.8-2.2,17.3,0l217.2,84.1L256,189.1L30.2,101.7L247.3,17.6z M472,397.7c0,9.9-6.1,18.8-15.3,22.4l-192,74.3
	c-5.6,2.2-11.8,2.2-17.3,0l-192-74.3c-9.2-3.6-15.3-12.5-15.3-22.4V174.1l201.6,78c9.3,3.6,19.6,3.6,28.9,0l201.6-78V397.7z
	 M496,131.2c0.1,9.9-6.1,18.9-15.3,22.4l-216,83.6c-5.6,2.2-11.8,2.2-17.3,0l-216-83.6c-9.3-3.5-15.4-12.5-15.3-22.4v-17.8
	l237.1,91.8c1.9,0.7,3.9,0.7,5.8,0L496,113.4V131.2z"/>
</svg>
